<svg width="41" height="35" viewBox="0 0 41 35" fill="none" xmlns="http://www.w3.org/2000/svg">
<path d="M7.84961 2.43321C7.5744 2.43321 7.31047 2.54032 7.11587 2.73097C6.92127 2.92163 6.81194 3.18021 6.81194 3.44983V7.47144C6.81194 7.77045 6.56778 7.9947 6.27785 7.9947C5.97265 7.9947 5.74376 7.75549 5.74376 7.47144V3.49468C5.74376 2.94152 5.30122 2.44816 4.73661 2.43321C4.14148 2.41826 3.65316 2.88172 3.65316 3.44983V7.47144C3.65316 7.77045 3.40901 7.9947 3.11907 7.9947C2.81387 7.9947 2.58498 7.75549 2.58498 7.47144V3.49468C2.58498 2.94152 2.14244 2.44816 1.57783 2.43321C0.982698 2.41826 0.494385 2.88172 0.494385 3.44983V10.297C0.494385 11.6455 1.16124 12.849 2.1867 13.5995C3.10381 14.1064 3.10381 16.4266 3.10381 16.4266V31.4068C3.10381 32.1842 3.74472 32.8121 4.53823 32.8121H4.88921C5.68272 32.8121 6.32363 32.1842 6.32363 31.4068V16.4266C6.32363 16.4266 6.32363 14.1975 7.24074 13.5995C7.76543 13.2158 8.19158 12.7175 8.48534 12.1443C8.77911 11.571 8.9324 10.9385 8.93305 10.297V3.44983C8.9176 3.1774 8.79713 2.92089 8.596 2.73216C8.39487 2.54343 8.12809 2.43658 7.84961 2.43321Z" fill="#DBDBDB"/>
<path d="M38.2212 2.43286C39.7555 2.43286 41 3.5237 41 4.86858V31.4074C41 32.1845 40.284 32.8121 39.3975 32.8121H39.0054C38.1189 32.8121 37.4029 32.1845 37.4029 31.4074V18.531C35.4868 17.7719 34.2491 16.0953 34.2491 14.2229V5.92953C34.2321 4.00188 36.005 2.43286 38.2212 2.43286Z" fill="#DBDBDB"/>
<path d="M38.028 17.6223C38.028 26.2342 31.0467 33.2155 22.4348 33.2155C13.823 33.2155 6.84164 26.2342 6.84164 17.6223C6.84164 9.01045 13.823 2.02914 22.4348 2.02914C31.0467 2.02914 38.028 9.01045 38.028 17.6223Z" stroke="#DBDBDB" stroke-width="2.56829"/>
<ellipse cx="1.73101" cy="1.73101" rx="1.73101" ry="1.73101" transform="matrix(-1 0 0 1 14.0837 11.9967)" fill="#DBDBDB"/>
<ellipse cx="1.73101" cy="1.73101" rx="1.73101" ry="1.73101" transform="matrix(-1 0 0 1 30.5273 11.9967)" fill="#DBDBDB"/>
<path d="M21.6788 17.0721C21.2124 17.4952 20.5016 17.8059 19.5731 17.8059C18.6446 17.8059 17.9339 17.4952 17.4675 17.0721H19.5731H21.6788Z" stroke="#DBDBDB" stroke-width="2.56829"/>
</svg>
