<?xml version="1.0" encoding="UTF-8"?>
<svg xmlns="http://www.w3.org/2000/svg" width="316" height="217" viewBox="0 0 316 217" fill="none">
  <path d="M90.925 6.72113C89.8293 6.72113 88.7784 7.14758 88.0036 7.90666C87.2288 8.66574 86.7936 9.69528 86.7936 10.7688V26.7809C86.7936 27.9714 85.8214 28.8642 84.6671 28.8642C83.4519 28.8642 82.5406 27.9118 82.5406 26.7809V10.9474C82.5406 8.74496 80.7786 6.78065 78.5306 6.72113C76.1611 6.6616 74.2168 8.50686 74.2168 10.7688V26.7809C74.2168 27.9714 73.2447 28.8642 72.0904 28.8642C70.8752 28.8642 69.9639 27.9118 69.9639 26.7809V10.9474C69.9639 8.74496 68.2019 6.78065 65.9539 6.72113C63.5844 6.6616 61.6401 8.50686 61.6401 10.7688V38.031C61.6401 43.4001 64.2952 48.1918 68.3781 51.18C72.0296 53.1978 72.0296 62.436 72.0296 62.436V122.08C72.0296 125.175 74.5814 127.675 77.7408 127.675H79.1382C82.2975 127.675 84.8493 125.175 84.8493 122.08V62.436C84.8493 62.436 84.8493 53.5609 88.5008 51.18C90.5899 49.6522 92.2866 47.6683 93.4562 45.3858C94.6259 43.1033 95.2362 40.585 95.2388 38.031V10.7688C95.1773 9.68411 94.6976 8.6628 93.8968 7.91139C93.096 7.15997 92.0338 6.73454 90.925 6.72113Z" fill="white"></path>
  <path d="M211.85 6.71973C217.959 6.71973 222.914 11.0629 222.914 16.4176V122.082C222.914 125.176 220.063 127.675 216.533 127.675H214.972C211.443 127.675 208.592 125.176 208.592 122.082V70.8146C200.963 67.7923 196.035 61.1168 196.035 53.662V20.6418C195.967 12.9668 203.026 6.71973 211.85 6.71973Z" fill="white"></path>
  <path fill-rule="evenodd" clip-rule="evenodd" d="M148.996 124.169C180.461 124.169 205.968 98.6619 205.968 67.1973C205.968 35.7327 180.461 10.2257 148.996 10.2257C117.531 10.2257 92.0244 35.7327 92.0244 67.1973C92.0244 98.6619 117.531 124.169 148.996 124.169ZM148.996 134.395C186.108 134.395 216.193 104.309 216.193 67.1973C216.193 30.0853 186.108 0 148.996 0C111.884 0 81.7987 30.0853 81.7987 67.1973C81.7987 104.309 111.884 134.395 148.996 134.395Z" fill="white"></path>
  <path d="M101.962 51.6901C101.962 55.4965 105.047 58.5822 108.854 58.5822C112.66 58.5822 115.746 55.4965 115.746 51.6901C115.746 47.8838 112.66 44.7981 108.854 44.7981C105.047 44.7981 101.962 47.8838 101.962 51.6901Z" fill="white"></path>
  <path d="M167.432 51.6901C167.432 55.4965 170.518 58.5822 174.325 58.5822C178.131 58.5822 181.217 55.4965 181.217 51.6901C181.217 47.8838 178.131 44.7981 174.325 44.7981C170.518 44.7981 167.432 47.8838 167.432 51.6901Z" fill="white"></path>
  <path fill-rule="evenodd" clip-rule="evenodd" d="M121.533 59.8933C121.533 64.0234 123.861 67.7087 127.501 70.119C130.261 71.9462 133.775 73.0406 137.602 73.0406C141.429 73.0406 144.943 71.9462 147.703 70.119C151.343 67.7087 153.671 64.0234 153.671 59.8933H121.533Z" fill="white"></path>
  <path d="M315.714 194.464C315.714 195.654 315.64 196.894 315.491 198.183H286.706C286.904 200.761 287.722 202.745 289.161 204.133C290.648 205.472 292.458 206.142 294.59 206.142C297.764 206.142 299.97 204.803 301.21 202.125H314.747C314.053 204.852 312.789 207.307 310.954 209.489C309.169 211.671 306.913 213.381 304.185 214.621C301.458 215.861 298.408 216.48 295.037 216.48C290.97 216.48 287.351 215.613 284.177 213.877C281.003 212.142 278.524 209.662 276.739 206.439C274.954 203.216 274.061 199.447 274.061 195.133C274.061 190.819 274.929 187.051 276.665 183.827C278.45 180.604 280.929 178.125 284.103 176.389C287.276 174.654 290.921 173.786 295.037 173.786C299.053 173.786 302.623 174.629 305.747 176.315C308.871 178.001 311.301 180.406 313.037 183.53C314.822 186.654 315.714 190.299 315.714 194.464ZM302.698 191.117C302.698 188.935 301.954 187.199 300.466 185.91C298.979 184.621 297.119 183.976 294.888 183.976C292.756 183.976 290.946 184.596 289.458 185.836C288.02 187.075 287.127 188.836 286.78 191.117H302.698Z" fill="white"></path>
  <path d="M261.049 170.067C258.818 170.067 256.983 169.423 255.545 168.133C254.157 166.794 253.463 165.158 253.463 163.224C253.463 161.241 254.157 159.604 255.545 158.315C256.983 156.976 258.818 156.307 261.049 156.307C263.231 156.307 265.016 156.976 266.405 158.315C267.843 159.604 268.562 161.241 268.562 163.224C268.562 165.158 267.843 166.794 266.405 168.133C265.016 169.423 263.231 170.067 261.049 170.067ZM267.372 174.381V215.885H254.653V174.381H267.372Z" fill="white"></path>
  <path d="M228.875 173.935C234.032 173.935 238.123 175.497 241.148 178.621C244.222 181.745 245.76 186.084 245.76 191.637V215.885H233.115V193.348C233.115 190.671 232.396 188.613 230.958 187.175C229.57 185.687 227.636 184.943 225.156 184.943C222.677 184.943 220.718 185.687 219.28 187.175C217.892 188.613 217.198 190.671 217.198 193.348V215.885H204.553V193.348C204.553 190.671 203.834 188.613 202.396 187.175C201.007 185.687 199.074 184.943 196.594 184.943C194.115 184.943 192.156 185.687 190.718 187.175C189.33 188.613 188.636 190.671 188.636 193.348V215.885H175.917V174.381H188.636V179.588C189.925 177.852 191.611 176.489 193.693 175.497C195.776 174.456 198.131 173.935 200.76 173.935C203.884 173.935 206.66 174.604 209.09 175.943C211.57 177.282 213.503 179.191 214.892 181.67C216.33 179.389 218.289 177.53 220.768 176.092C223.247 174.654 225.95 173.935 228.875 173.935Z" fill="white"></path>
  <path d="M150.137 173.935C155.294 173.935 159.385 175.497 162.409 178.621C165.484 181.745 167.021 186.084 167.021 191.637V215.885H154.376V193.348C154.376 190.671 153.657 188.613 152.219 187.175C150.831 185.687 148.897 184.943 146.418 184.943C143.938 184.943 141.98 185.687 140.541 187.175C139.153 188.613 138.459 190.671 138.459 193.348V215.885H125.814V193.348C125.814 190.671 125.095 188.613 123.657 187.175C122.269 185.687 120.335 184.943 117.855 184.943C115.376 184.943 113.417 185.687 111.979 187.175C110.591 188.613 109.897 190.671 109.897 193.348V215.885H97.1777V174.381H109.897V179.588C111.186 177.852 112.872 176.489 114.955 175.497C117.037 174.456 119.393 173.935 122.021 173.935C125.145 173.935 127.922 174.604 130.351 175.943C132.831 177.282 134.765 179.191 136.153 181.67C137.591 179.389 139.55 177.53 142.029 176.092C144.508 174.654 147.211 173.935 150.137 173.935Z" fill="white"></path>
  <path d="M88.0414 174.381V215.885H75.3224V210.233C74.0331 212.067 72.2728 213.555 70.0414 214.695C67.8595 215.786 65.4298 216.332 62.7521 216.332C59.5785 216.332 56.7769 215.638 54.3471 214.249C51.9173 212.811 50.033 210.753 48.6942 208.076C47.3553 205.398 46.6859 202.249 46.6859 198.629V174.381H59.3306V196.918C59.3306 199.695 60.0496 201.852 61.4876 203.39C62.9256 204.927 64.8595 205.695 67.2893 205.695C69.7686 205.695 71.7273 204.927 73.1653 203.39C74.6033 201.852 75.3224 199.695 75.3224 196.918V174.381H88.0414Z" fill="white"></path>
  <path d="M40.6744 163.67V173.861H26.8397V215.885H14.1206V173.861H0.285889V163.67H40.6744Z" fill="white"></path>
</svg>
