<svg width="30" height="30" viewBox="0 0 30 30" fill="none" xmlns="http://www.w3.org/2000/svg">
<path d="M11.25 26.25V27.5H8.75V26.25C8.08696 26.25 7.45107 25.9866 6.98223 25.5178C6.51339 25.0489 6.25 24.413 6.25 23.75V5C6.25 4.33696 6.51339 3.70107 6.98223 3.23223C7.45107 2.76339 8.08696 2.5 8.75 2.5H21.25C21.913 2.5 22.5489 2.76339 23.0178 3.23223C23.4866 3.70107 23.75 4.33696 23.75 5V23.75C23.75 24.413 23.4866 25.0489 23.0178 25.5178C22.5489 25.9866 21.913 26.25 21.25 26.25V27.5H18.75V26.25H11.25ZM8.75 5V11.25H21.25V5H8.75ZM8.75 23.75H21.25V13.75H8.75V23.75ZM10 15H12.5V18.75H10V15ZM10 7.5H12.5V10H10V7.5Z" fill="#ffffff"/>
</svg>
