<svg width="31" height="30" viewBox="0 0 31 30" fill="none" xmlns="http://www.w3.org/2000/svg">
<path d="M6.43706 22.2547C8.9766 20.8192 11.9105 20 15.0358 20C18.161 20 21.0949 20.8192 23.6345 22.2547M18.7858 12.5C18.7858 14.5711 17.1068 16.25 15.0358 16.25C12.9647 16.25 11.2858 14.5711 11.2858 12.5C11.2858 10.4289 12.9647 8.74999 15.0358 8.74999C17.1068 8.74999 18.7858 10.4289 18.7858 12.5ZM26.2858 15C26.2858 21.2132 21.249 26.25 15.0358 26.25C8.82256 26.25 3.78577 21.2132 3.78577 15C3.78577 8.78679 8.82256 3.74999 15.0358 3.74999C21.249 3.74999 26.2858 8.78679 26.2858 15Z" stroke="#7C7C7C" stroke-width="2.30769" stroke-linecap="round" stroke-linejoin="round"/>
</svg>
