<svg width="30" height="30" viewBox="0 0 31 30" fill="none" xmlns="http://www.w3.org/2000/svg">
<path d="M6.94109 1.875C5.87421 1.875 4.90203 2.58468 4.64984 3.67125C4.36859 4.88437 3.95984 6.96562 3.95984 8.90625C3.95962 9.89503 4.20002 10.869 4.66029 11.7441C5.12056 12.6193 5.78687 13.3693 6.60171 13.9294C7.04046 14.2303 7.24109 14.5978 7.24109 14.8969C7.24078 14.9282 7.2389 14.9595 7.23546 14.9906C7.18109 15.45 6.94953 17.4094 6.73109 19.4381C6.51546 21.4331 6.30359 23.5866 6.30359 24.375C6.30359 25.3696 6.69868 26.3234 7.40194 27.0266C8.1052 27.7299 9.05903 28.125 10.0536 28.125C11.0482 28.125 12.002 27.7299 12.7052 27.0266C13.4085 26.3234 13.8036 25.3696 13.8036 24.375C13.8036 23.5875 13.5908 21.4331 13.3761 19.4381C13.1577 17.4094 12.9261 15.4491 12.8717 14.9897C12.8683 14.9585 12.8664 14.9273 12.8661 14.8959C12.8661 14.5978 13.0667 14.2303 13.5045 13.9294C14.3195 13.3694 14.986 12.6194 15.4465 11.7443C15.9069 10.8692 16.1475 9.89512 16.1473 8.90625C16.1473 6.96468 15.7395 4.88343 15.4573 3.67125C15.2052 2.58468 14.233 1.875 13.1661 1.875C12.6091 1.87416 12.0692 2.06705 11.6389 2.42062C11.1864 2.06656 10.6282 1.87445 10.0536 1.875C9.45546 1.875 8.90515 2.07843 8.46828 2.42062C8.03794 2.06705 7.49804 1.87416 6.94109 1.875ZM12.6317 4.28437C12.6317 4.14265 12.688 4.00673 12.7882 3.90651C12.8884 3.8063 13.0244 3.75 13.1661 3.75C13.4098 3.75 13.588 3.90562 13.6311 4.09593C13.903 5.26687 14.2723 7.18218 14.2723 8.90625C14.2725 9.59098 14.1059 10.2655 13.7871 10.8714C13.4683 11.4774 13.0067 11.9967 12.4423 12.3844C11.7017 12.8934 10.9911 13.7653 10.9911 14.8969C10.9911 15.0012 10.9973 15.1062 11.0098 15.2119C11.0642 15.6684 11.2948 17.6212 11.5123 19.6387C11.7317 21.6891 11.9286 23.7141 11.9286 24.375C11.9286 24.8723 11.731 25.3492 11.3794 25.7008C11.0278 26.0525 10.5509 26.25 10.0536 26.25C9.55631 26.25 9.0794 26.0525 8.72776 25.7008C8.37613 25.3492 8.17859 24.8723 8.17859 24.375C8.17859 23.7141 8.37453 21.6891 8.59484 19.6387C8.81234 17.6212 9.04296 15.6684 9.09734 15.2119C9.10984 15.1056 9.11609 15.0006 9.11609 14.8969C9.11609 13.7653 8.40453 12.8934 7.66484 12.3844C7.10045 11.9967 6.63891 11.4774 6.32008 10.8714C6.00125 10.2655 5.83471 9.59098 5.83484 8.90625C5.83484 7.18125 6.20421 5.26687 6.47609 4.09593C6.50206 3.99363 6.56246 3.90338 6.64715 3.84038C6.73184 3.77738 6.83564 3.74546 6.94109 3.75C7.08281 3.75 7.21873 3.8063 7.31895 3.90651C7.41916 4.00673 7.47546 4.14265 7.47546 4.28437V9.375C7.47546 9.62364 7.57424 9.86209 7.75005 10.0379C7.92587 10.2137 8.16432 10.3125 8.41296 10.3125C8.6616 10.3125 8.90006 10.2137 9.07588 10.0379C9.25169 9.86209 9.35046 9.62364 9.35046 9.375V4.45312C9.35046 4.26664 9.42454 4.0878 9.55641 3.95594C9.68827 3.82408 9.86711 3.75 10.0536 3.75C10.2401 3.75 10.4189 3.82408 10.5508 3.95594C10.6826 4.0878 10.7567 4.26664 10.7567 4.45312V9.375C10.7567 9.62364 10.8555 9.86209 11.0313 10.0379C11.2071 10.2137 11.4456 10.3125 11.6942 10.3125C11.9429 10.3125 12.1813 10.2137 12.3571 10.0379C12.5329 9.86209 12.6317 9.62364 12.6317 9.375V4.28437ZM19.4286 8.90625C19.4284 7.61975 19.9092 6.37965 20.7765 5.42945C21.6437 4.47924 22.8349 3.88758 24.1161 3.77062V14.0625C24.1161 14.3241 24.1677 14.9137 24.2352 15.6169C24.3055 16.3453 24.4011 17.265 24.5014 18.2344V18.2372C24.7667 20.7787 25.0536 23.565 25.0536 24.375C25.0536 24.8723 24.856 25.3492 24.5044 25.7008C24.1528 26.0525 23.6759 26.25 23.1786 26.25C22.6813 26.25 22.2044 26.0525 21.8528 25.7008C21.5011 25.3492 21.3036 24.8723 21.3036 24.375C21.3036 23.7056 21.5023 21.4547 21.7236 19.1775C21.884 17.5381 22.0512 15.8993 22.2252 14.2612C22.2305 14.2117 22.2346 14.162 22.2373 14.1122C22.2441 13.985 22.2249 13.8578 22.1808 13.7384C22.1368 13.6189 22.0689 13.5096 21.9813 13.4173C21.8936 13.3249 21.7881 13.2513 21.6711 13.2011C21.5541 13.1508 21.4281 13.1249 21.3008 13.125H19.8973C19.773 13.125 19.6538 13.0756 19.5659 12.9877C19.478 12.8998 19.4286 12.7806 19.4286 12.6562V8.90625ZM24.5848 1.875C22.72 1.875 20.9316 2.61579 19.613 3.9344C18.2944 5.25302 17.5536 7.04144 17.5536 8.90625V12.6562C17.5536 13.2778 17.8005 13.874 18.2401 14.3135C18.6796 14.7531 19.2757 15 19.8973 15H20.262C20.1227 16.3314 19.988 17.6633 19.858 18.9956C19.6423 21.2175 19.4286 23.5894 19.4286 24.375C19.4286 25.3696 19.8237 26.3234 20.5269 27.0266C21.2302 27.7299 22.184 28.125 23.1786 28.125C24.1732 28.125 25.127 27.7299 25.8302 27.0266C26.5335 26.3234 26.9286 25.3696 26.9286 24.375C26.9286 23.4516 26.6314 20.5941 26.3792 18.1584L26.367 18.0441C26.2757 17.1753 26.1873 16.3062 26.1017 15.4369C26.0286 14.6887 25.9911 14.2106 25.9911 14.0625V2.8125C25.9911 2.56386 25.8923 2.3254 25.7165 2.14958C25.5407 1.97377 25.3022 1.875 25.0536 1.875H24.5848Z" fill="#1D6961"/>
</svg>
