<svg width="31" height="30" viewBox="0 0 31 30" fill="none" xmlns="http://www.w3.org/2000/svg">
<path d="M21.6072 25H27.8572V22.5C27.8572 20.4289 26.1782 18.75 24.1072 18.75C22.9127 18.75 21.8486 19.3085 21.1619 20.1786M21.6072 25H9.10718M21.6072 25V22.5C21.6072 21.6797 21.4491 20.8963 21.1619 20.1786M9.10718 25H2.85718V22.5C2.85718 20.4289 4.53611 18.75 6.60718 18.75C7.80169 18.75 8.86575 19.3085 9.55249 20.1786M9.10718 25V22.5C9.10718 21.6797 9.26521 20.8963 9.55249 20.1786M9.55249 20.1786C10.4741 17.8763 12.7257 16.25 15.3572 16.25C17.9887 16.25 20.2403 17.8763 21.1619 20.1786M19.1072 8.75C19.1072 10.8211 17.4282 12.5 15.3572 12.5C13.2861 12.5 11.6072 10.8211 11.6072 8.75C11.6072 6.67893 13.2861 5 15.3572 5C17.4282 5 19.1072 6.67893 19.1072 8.75ZM26.6072 12.5C26.6072 13.8807 25.4879 15 24.1072 15C22.7265 15 21.6072 13.8807 21.6072 12.5C21.6072 11.1193 22.7265 10 24.1072 10C25.4879 10 26.6072 11.1193 26.6072 12.5ZM9.10718 12.5C9.10718 13.8807 7.98789 15 6.60718 15C5.22647 15 4.10718 13.8807 4.10718 12.5C4.10718 11.1193 5.22647 10 6.60718 10C7.98789 10 9.10718 11.1193 9.10718 12.5Z" stroke="#1D6961" stroke-width="2" stroke-linecap="round" stroke-linejoin="round"/>
</svg>
