<svg width="34" height="34" viewBox="0 0 34 34" fill="none" xmlns="http://www.w3.org/2000/svg">
<path d="M16.1367 9.01C13.2521 8.63547 10.4072 7.94219 7.71908 9.61828C5.20893 11.1855 3.2858 13.8603 2.55268 16.7238C1.51674 20.7692 2.13299 25.3752 4.89814 28.6158C6.41752 30.3928 8.94361 32.2867 11.2014 32.9906C16.9974 34.8022 24.1613 33.9442 27.7977 28.5441C28.8363 27.0034 29.8775 24.913 30.2574 23.0855C31.3225 17.9695 30.1299 11.9744 24.8333 9.77235C22.4746 8.79219 19.9538 9.33141 17.4888 9.15344C17.0345 9.11891 16.5856 9.06844 16.1367 9.01Z" fill="#DB4437"/>
<path d="M24.9475 0.154071C26.8706 0.0903213 30.0953 0.950946 31.3995 2.32423C31.5589 2.49688 31.8644 2.7386 31.9095 2.9511C31.9812 3.29907 31.705 3.59657 31.5031 3.85157C28.6344 7.51454 22.7587 9.41376 19.04 6.92485C18.5194 6.57688 18.7983 5.93142 18.9045 5.39751C19.3322 3.2672 20.9764 1.3122 23.0031 0.539228C23.6379 0.297509 24.294 0.175321 24.9475 0.154071Z" fill="#BDCF46"/>
<path d="M18.9683 5.82249C18.9497 5.75343 18.9152 5.69233 18.8647 5.64983C18.7584 5.56749 18.538 5.48514 18.4131 5.43999C18.2245 5.36827 18.0227 5.33905 17.8261 5.33905C17.7517 5.33905 17.68 5.34171 17.6109 5.34968C17.3453 5.38155 17.1169 5.47983 16.9655 5.69499C16.7636 5.97389 16.7981 6.28999 16.745 6.61405C16.6706 7.07624 16.4528 7.49593 16.3333 7.94749C16.2403 8.29546 16.1659 8.64874 16.0995 9.00468C16.0491 9.26499 16.0066 9.5253 15.9747 9.78827C15.8605 10.7631 15.7011 11.738 15.7436 12.7234C15.7463 12.8589 15.7516 12.9944 15.7595 13.1298C15.7622 13.1989 15.7702 13.2653 15.7808 13.3344C15.7967 13.4247 15.802 13.5283 15.8127 13.6319C15.818 13.6691 15.8206 13.7062 15.8259 13.7434C15.8552 13.9028 15.9109 14.0516 16.0624 14.1339C16.2509 14.2401 16.4741 14.288 16.6972 14.2906C16.7663 14.2906 16.8327 14.28 16.9017 14.2747L17.077 14.264C17.162 14.2401 17.247 14.2083 17.3374 14.1844C17.4781 14.1498 17.6163 14.0781 17.7145 13.9692C17.8022 13.8709 17.8128 13.77 17.8075 13.6531L17.7995 13.5708C17.7889 13.4672 17.7809 13.3609 17.7756 13.2547C17.765 13.0448 17.757 12.8297 17.7517 12.6198C17.7358 12.147 17.7438 11.6689 17.7863 11.1961C17.8155 10.9145 17.8288 10.6276 17.8527 10.3461C17.8819 9.95296 17.9377 9.56249 18.0041 9.17202C18.02 9.08967 18.028 9.00999 18.0439 8.9303C18.1395 8.43092 18.3175 7.98202 18.5088 7.50921C18.5964 7.29139 18.6336 7.0603 18.7133 6.85046C18.8009 6.63264 18.9949 6.51311 18.9949 6.2528C18.9949 6.13327 19.0055 5.96061 18.9683 5.82249Z" fill="#855C52"/>
<path d="M10.4045 11.5786C10.0645 11.1217 9.13221 11.0766 8.46814 11.305C7.64736 11.5866 6.91689 12.2002 6.40424 12.8908C5.9633 13.4858 5.31517 14.7342 5.95533 15.4169C6.26877 15.7489 6.64861 15.6188 7.00986 15.4381C7.66596 15.1114 8.06174 14.3969 8.61424 13.9373C9.18267 13.4672 11.1935 12.6225 10.4045 11.5786Z" fill="white"/>
<path d="M15.9429 13.5495C15.3213 13.4167 14.7157 13.1963 14.1472 12.9174C13.8497 12.7713 12.9891 12.0859 12.9014 12.8058C12.7899 13.6744 13.9879 14.4234 14.5829 14.7024C15.6082 15.1858 16.7557 15.3584 17.858 15.1353C18.9205 14.9202 19.8263 14.3969 20.5063 13.4778C20.5939 13.3583 20.6524 13.2175 20.6949 13.0847C20.8463 12.6039 20.3204 12.5986 20.0388 12.7341C19.8104 12.843 19.6138 13.0183 19.388 13.1272C18.9524 13.337 18.4955 13.507 18.0307 13.5974C17.3347 13.7302 16.6308 13.6956 15.9429 13.5495Z" fill="#B93221"/>
</svg>
