<svg width="38" height="38" viewBox="0 0 38 38" fill="none" xmlns="http://www.w3.org/2000/svg">
<path d="M16.4647 20.9802L1.19048 32.867C1.19048 32.867 0.682821 33.5825 1.11032 34.203C1.54079 34.8235 2.98954 34.6631 5.32892 33.6122C7.4486 32.6592 12.9111 29.83 15.5681 28.0606C17.5186 26.7603 20.4933 25.0533 22.328 23.3344C23.177 22.5417 23.655 21.9331 23.9281 20.9861C24.7653 18.0797 23.1949 16.8744 23.1949 16.8744L16.4647 20.9802Z" fill="#ED6C31"/>
<path d="M2.1049 33.3866C3.78224 33.0927 8.32146 30.2219 10.6341 28.8949C12.9468 27.5678 20.9951 22.6961 22.0757 20.7516C22.6783 19.665 22.9693 17.667 22.046 16.4024C21.1227 15.1377 19.3652 14.152 16.9576 15.3217C14.7369 16.4024 10.358 22.233 8.16709 24.6674C5.19537 27.9716 2.55021 31.0769 1.47849 32.4277C1.11333 32.8849 1.06287 33.1224 1.06287 33.1224C1.06287 33.1224 1.45771 33.5024 2.1049 33.3866Z" fill="#FF8D02"/>
<path d="M23.9875 12.5816C23.9104 13.1041 23.3908 13.582 22.4765 14.4014C21.2741 15.482 20.7813 15.4197 20.5646 15.9748C20.431 16.3222 20.7041 17.0644 21.4285 17.857C22.0757 18.5666 22.6665 18.7952 22.9099 18.7506C23.5007 18.6467 23.8361 17.857 25.0682 16.8388C25.9825 16.0847 26.3032 15.8205 26.7633 15.8531C27.2265 15.8828 27.6213 16.3192 28.12 16.8388C28.8593 17.6106 30.305 18.3053 31.8043 17.8036C33.5885 17.2039 33.6597 15.5473 33.8438 15.3633C34.0279 15.1792 35.3965 15.2059 36.106 14.3717C36.8155 13.5405 37.0204 11.5247 36.7116 10.9695C36.4029 10.4144 22.135 6.44516 22.135 6.44516C22.135 6.44516 21.5294 8.19375 21.9807 9.46735C22.6932 11.4713 24.13 11.6048 23.9875 12.5816Z" fill="#2F7C31"/>
<path d="M13.965 20.2914C14.6004 20.8673 15.2594 20.4161 15.6929 19.9827C16.0818 19.5938 16.9872 18.718 17.388 18.4419C17.7888 18.1658 18.5904 17.5483 19.1158 17.1475C19.6413 16.7467 19.5819 15.4019 18.4063 15.6067C17.6968 15.7314 16.8952 16.3786 16.0016 17.1178C15.295 17.7027 14.4608 18.5992 14.1194 19.0594C13.781 19.5195 13.6266 19.9827 13.965 20.2914ZM11.2724 23.2275C10.836 22.7911 10.4174 23.088 9.82363 23.7352C9.22988 24.3823 9.15863 24.8306 9.50894 25.1661C9.99879 25.6381 10.5213 25.0444 10.9399 24.5723C11.3585 24.1003 11.7622 23.7173 11.2724 23.2275Z" fill="#FFA726"/>
<path d="M17.6493 18.9109C17.3316 19.19 17.3554 19.6739 17.7235 20.0895C18.1718 20.5942 18.6022 21.0247 18.9793 21.3453C19.3533 21.663 19.8402 21.5145 20.0094 21.2889C20.241 20.9801 20.1964 20.5764 19.861 20.2201C19.576 19.9203 18.9436 19.2078 18.5696 18.9287C18.3232 18.7476 17.9491 18.6497 17.6493 18.9109ZM12.3679 21.2919C11.9077 21.6926 12.163 22.322 12.4985 22.8089C12.8369 23.2958 13.3772 23.9311 13.9977 23.557C14.6182 23.183 14.0719 22.1528 13.7929 21.7402C13.5108 21.3275 12.9468 20.7842 12.3679 21.2919ZM9.52973 26.3595C9.11707 26.8108 9.41989 27.3303 9.90379 27.6895C10.4085 28.0636 11.0468 28.2892 11.3644 27.8766C11.6821 27.4639 11.2694 26.8642 10.8775 26.5851C10.4857 26.3031 9.92457 25.9291 9.52973 26.3595ZM4.40864 29.548C3.91285 29.925 4.2602 30.6345 4.50364 30.9344C4.74707 31.2342 5.19535 31.6469 5.62582 31.2728C6.04442 30.9076 5.80395 30.3436 5.56942 29.9428C5.25176 29.3995 4.72629 29.3045 4.40864 29.548Z" fill="#ED6C31"/>
<path d="M26.2408 4.82421C26.4664 4.78561 28.6633 2.19389 31.9942 3.94842C35.2093 5.64061 33.7547 8.36889 33.8734 8.54108C33.9922 8.71327 35.4083 8.65983 36.1979 9.84436C37.044 11.115 36.7917 11.8186 36.7917 11.8186C36.7917 11.8186 36.4859 13.0061 35.0579 13.2881C34.1554 13.4662 33.152 13.0595 32.87 13.202C32.5879 13.3445 32.6562 14.6597 31.0204 15.1673C29.9814 15.4909 27.8884 15.0634 26.5228 13.7661C25.1364 12.4509 25.6084 11.0615 24.7564 10.3906C23.5718 9.45842 21.1315 8.1403 22.3101 6.02952C23.6639 3.60405 26.0181 4.8628 26.2408 4.82421Z" fill="#709921"/>
</svg>
