<svg width="34" height="34" viewBox="0 0 34 34" fill="none" xmlns="http://www.w3.org/2000/svg">
<path d="M30.8125 16.0172C29.4631 16.0172 28.2838 14.9228 28.2838 13.5628C28.2838 12.1667 29.4482 11.1084 30.8125 11.1084V8.95155C30.8125 8.02717 29.9625 7.33655 29.0594 7.53842L17.4356 6.77661L5.38688 12.7553C4.72813 12.904 4.25 13.4884 4.25 14.1684V23.7415C4.83542 23.7595 5.39085 24.0047 5.79859 24.4252C6.20634 24.8457 6.43437 25.4083 6.43437 25.994C6.43437 26.5798 6.20634 27.1424 5.79859 27.5629C5.39085 27.9834 4.83542 28.2286 4.25 28.2465V30.3822C4.25 31.3065 5.1 31.9972 6.00313 31.7953L29.6756 26.5784C30.3344 26.4297 30.8125 25.8453 30.8125 25.1653V16.0172Z" fill="#FCD53F"/>
<path d="M16.7238 2.72531L5.01501 12.8828L29.8244 7.58093L19.4331 2.38531C18.5406 1.93906 17.4781 2.07718 16.7238 2.72531ZM26.01 17.4622C26.01 18.4964 25.5992 19.4882 24.8679 20.2195C24.1366 20.9507 23.1448 21.3616 22.1106 21.3616C21.0765 21.3616 20.0846 20.9507 19.3534 20.2195C18.6221 19.4882 18.2113 18.4964 18.2113 17.4622C18.2113 16.428 18.6221 15.4362 19.3534 14.7049C20.0846 13.9736 21.0765 13.5628 22.1106 13.5628C23.1448 13.5628 24.1366 13.9736 24.8679 14.7049C25.5992 15.4362 26.01 16.428 26.01 17.4622ZM13.3981 23.3591C13.9955 23.3591 14.5685 23.1217 14.9909 22.6993C15.4133 22.2769 15.6506 21.704 15.6506 21.1066C15.6506 20.5092 15.4133 19.9362 14.9909 19.5138C14.5685 19.0914 13.9955 18.8541 13.3981 18.8541C12.8007 18.8541 12.2278 19.0914 11.8054 19.5138C11.383 19.9362 11.1456 20.5092 11.1456 21.1066C11.1456 21.704 11.383 22.2769 11.8054 22.6993C12.2278 23.1217 12.8007 23.3591 13.3981 23.3591ZM20.145 24.5703C20.145 24.8916 20.0174 25.1996 19.7902 25.4268C19.5631 25.6539 19.255 25.7816 18.9338 25.7816C18.6125 25.7816 18.3044 25.6539 18.0773 25.4268C17.8501 25.1996 17.7225 24.8916 17.7225 24.5703C17.7225 24.2491 17.8501 23.941 18.0773 23.7138C18.3044 23.4867 18.6125 23.3591 18.9338 23.3591C19.255 23.3591 19.5631 23.4867 19.7902 23.7138C20.0174 23.941 20.145 24.2491 20.145 24.5703Z" fill="#FFB02E"/>
</svg>
