<svg width="38" height="38" viewBox="0 0 38 38" fill="none" xmlns="http://www.w3.org/2000/svg">
<path d="M31.8249 17.6938C30.3405 7.00625 23.5717 1.1875 18.9999 1.1875C14.428 1.1875 7.65924 7.00625 6.17487 17.6938C4.74986 28.3813 9.44049 36.8125 18.9999 36.8125C28.5592 36.8125 33.2499 28.3813 31.8249 17.6938Z" fill="#FFC294"/>
<path opacity="0.33" d="M31.8252 17.6938C30.6377 9.2626 26.1846 3.85947 22.0877 1.95947C24.8783 4.7501 27.3721 9.14385 28.1439 15.0813C29.6283 25.7689 24.9377 34.2001 15.3189 34.2001C13.2408 34.2001 11.4002 33.7845 9.85645 33.072C12.0533 35.447 15.1408 36.8126 19.0002 36.8126C28.5596 36.8126 33.2502 28.3813 31.8252 17.6938Z" fill="#D3976E"/>
</svg>
