<svg width="34" height="34" viewBox="0 0 34 34" fill="none" xmlns="http://www.w3.org/2000/svg">
<path d="M14.8113 2.56328C20.0388 2.70672 26.5944 5.17438 29.6119 8.21844C33.1314 11.7672 34.2152 17.7544 32.9534 22.6977C32.4248 24.7589 30.3503 28.1563 26.095 29.8669C23.0403 31.0967 15.717 31.8405 12.4233 31.28C12.4233 31.28 12.7952 26.3234 12.2719 23.9195C11.212 19.0639 12.843 18.5539 13.6 13.6983C14.1711 10.0459 12.9625 6.0775 14.3411 2.64828C14.3384 2.65094 14.3145 2.55 14.8113 2.56328Z" fill="#6C4828"/>
<mask id="mask0_257_3873" style="mask-type:luminance" maskUnits="userSpaceOnUse" x="11" y="2" width="23" height="30">
<path d="M14.8113 2.56328C20.0388 2.70672 26.5944 5.17438 29.6119 8.21844C33.1314 11.7672 34.2152 17.7544 32.9534 22.6977C32.4248 24.7589 30.3503 28.1563 26.095 29.8669C23.0403 31.0967 15.717 31.8405 12.4233 31.28C12.4233 31.28 12.7952 26.3234 12.2719 23.9195C11.212 19.0639 12.843 18.5539 13.6 13.6983C14.1711 10.0459 12.9625 6.0775 14.3411 2.64828C14.3384 2.65094 14.3145 2.55 14.8113 2.56328Z" fill="white"/>
</mask>
<g mask="url(#mask0_257_3873)">
<path d="M13.847 1.68938C16.6015 2.40656 19.1515 2.14625 25.6726 4.72016C30.3848 6.57953 32.1326 10.3302 32.7568 11.8681C33.381 13.4061 33.8379 14.8883 33.6653 16.5405C33.4634 18.4663 33.1446 19.712 32.2946 21.0508C31.9068 21.6617 31.264 22.5781 30.7354 23.0722C29.5401 24.1825 28.0818 24.6792 27.3646 25.2716C26.5146 25.9755 25.067 27.038 24.1107 27.5905C23.2607 28.0819 22.27 28.2731 21.2898 28.3475C17.6295 28.6344 13.8709 27.3673 11.1296 24.9236C10.8321 24.658 10.5426 24.3764 10.3168 24.0444C10.0034 23.5795 9.82542 23.035 9.71917 22.4852C9.17464 19.6934 10.3195 16.8778 10.5639 14.0436C10.7631 11.7061 10.346 9.34735 10.5293 7.00985C10.7126 4.67235 11.7432 2.73063 13.847 1.68938Z" fill="#906E41"/>
</g>
<path d="M14.28 30.7408C13.6744 30.7408 13.0502 30.6983 12.4286 30.6133C8.28221 30.0502 5.0708 28.3103 3.13971 25.5797C1.32814 23.0217 0.775644 19.7147 1.54064 16.0172C3.12643 8.34594 8.13346 3.19281 14.0038 3.19281C14.6891 3.19281 15.385 3.26719 16.0703 3.41328C23.5025 4.9911 26.9025 9.5386 26.4563 17.3161C25.9941 25.3459 21.1013 30.7408 14.28 30.7408Z" fill="#B3BF42"/>
<path d="M13.9984 3.85953C14.6385 3.85953 15.2867 3.92859 15.9268 4.06406C23.0828 5.58344 26.2171 9.78297 25.7895 17.2789C25.569 21.1331 24.3259 24.3844 22.1956 26.6873C20.1396 28.9053 17.4037 30.0767 14.2773 30.0767C13.7009 30.0767 13.1085 30.0369 12.5135 29.9545C8.55573 29.418 5.49838 27.7711 3.6762 25.1972C1.9762 22.7933 1.46088 19.6669 2.18604 16.1527C2.94307 12.4897 4.51557 9.37125 6.73354 7.13203C8.85323 4.99109 11.366 3.85953 13.9984 3.85953ZM13.9984 2.53141C7.93151 2.53141 2.54463 7.85719 0.887134 15.8844C-0.844741 24.2622 4.00557 30.1405 12.3382 31.272C12.9996 31.3623 13.6451 31.4048 14.2799 31.4048C21.3615 31.4048 26.6289 25.9117 27.1176 17.3559C27.5692 9.42703 24.1851 4.45984 16.2057 2.76516C15.462 2.60844 14.7262 2.53141 13.9984 2.53141Z" fill="#A5AB3B"/>
<path d="M11.6715 11.645C11.9876 11.6078 12.2612 11.2545 12.6437 11.3236C12.7048 11.4033 12.6756 11.5786 12.7632 11.6264C12.8668 11.6848 13.1165 11.56 13.2095 11.5095C13.3529 11.4272 13.4459 11.2997 13.5814 11.2041C13.8789 11.2439 13.9639 11.5653 14.3915 11.4883C14.6253 11.4458 14.5403 11.4697 14.6864 11.5706C14.8139 11.6556 15.0237 11.8177 15.2521 11.8177C15.4195 11.8177 15.4965 11.7566 15.6346 11.7964C15.6214 11.7911 15.7117 11.8814 15.7329 11.8894C15.8259 11.9292 15.964 11.9239 16.0623 11.9213C16.2695 11.9186 16.4581 11.8177 16.6599 11.807C16.7582 11.8017 16.814 11.9664 16.9149 11.9638C16.992 12.1683 16.9734 12.2533 17.0132 12.4498C17.0345 12.5534 16.9654 12.5375 17.0504 12.6331C17.1328 12.7288 17.3665 12.6517 17.4595 12.7288C17.587 12.8323 17.5126 12.9466 17.5524 13.0847C17.6374 13.3822 18.0704 13.4486 18.3493 13.5655C18.3201 13.677 18.2829 13.8231 18.3254 13.9347C18.4024 14.1313 18.6415 14.1153 18.7371 14.272C18.8832 14.5138 18.591 14.7661 18.5273 14.9972C18.421 15.3823 18.6335 15.3717 18.8832 15.547C19.0824 15.6878 18.9709 15.648 19.0081 15.8817C19.0399 16.0836 19.2604 16.2005 19.2896 16.3731C19.3056 16.4661 19.2259 16.5538 19.2046 16.6467C19.1674 16.8114 19.1967 16.9655 19.1196 17.1248C19.0718 17.2231 18.9815 17.2922 18.9417 17.3958C18.8885 17.5339 18.9496 17.6827 18.9071 17.8102C18.8726 17.9164 18.7637 17.9563 18.7371 18.0625C18.692 18.2405 18.8832 18.3839 18.7956 18.5672C18.6867 18.7956 18.5831 18.6788 18.5273 18.9656C18.4821 19.2047 18.4928 19.4809 18.3785 19.7173C18.2803 19.9219 17.8792 19.9113 17.8207 20.137C17.7809 20.2937 17.8579 20.562 17.9137 20.7028C17.7995 20.9844 17.5179 20.7533 17.4223 21.1039C17.3851 21.2367 17.5259 21.3828 17.502 21.5183C17.3851 21.7281 17.1567 21.8609 17.0292 21.8477C16.9495 22.1983 16.6732 22.1638 16.737 22.533C16.6679 22.7109 15.2654 22.8305 15.2017 22.9713C14.9626 23.4175 14.7607 23.2608 14.187 23.4361C14.094 23.4653 14.0223 23.4414 13.9745 23.4388C13.7753 23.4334 13.5734 23.468 13.3529 23.5025C13.1298 23.537 12.9624 23.7017 12.7393 23.6725C12.4073 23.5158 12.5082 23.4388 12.2612 23.1811C12.1018 23.0084 11.8043 22.9075 11.6874 23.043C11.5892 23.1572 11.5679 23.2608 11.4271 23.3219C11.1403 23.4414 10.7153 22.9314 10.3407 22.9367C10.0485 22.942 9.87057 23.0058 9.54917 22.873C9.36323 22.7959 9.25167 22.7295 9.04448 22.6923C9.04182 22.533 8.89839 22.432 8.84526 22.2859C8.83464 22.2594 8.87979 22.1611 8.86385 22.1053C8.80276 21.9141 8.65932 21.752 8.52386 21.6086C8.44948 21.5316 8.21573 21.3828 8.20245 21.2739C8.17057 21.0561 8.14401 20.9233 8.28745 20.7453C8.23698 20.4372 8.33526 20.4159 7.96339 20.323C7.61011 20.2353 7.53573 20.153 7.74292 19.8502C7.80667 19.7545 7.98729 19.6297 8.02714 19.5394C8.11214 19.3402 7.95542 19.3322 7.8837 19.1542C7.82261 19.0081 7.89698 18.9709 7.89432 18.8806C7.8837 18.6469 7.55167 18.0784 7.63136 17.9005C7.67386 17.8022 7.75354 17.8314 7.83589 17.7438C7.91026 17.6667 7.9687 17.4755 7.96604 17.3692C8.44151 17.3559 8.32729 16.6573 8.33261 16.3652C8.33526 16.1473 8.40964 15.9455 8.38573 15.725C8.36182 15.5045 8.31932 15.3983 8.25026 15.1884C8.2662 14.9148 8.91432 14.8723 9.04182 14.7581C9.03386 14.7661 9.37651 14.0463 9.37917 14.017C9.45089 13.4353 9.26229 13.1723 9.64745 12.9492C9.78292 12.9944 9.88386 12.9572 9.99542 12.8775C10.107 12.7978 10.1229 12.6225 10.2106 12.5614C10.362 12.4578 10.6249 12.5986 10.8003 12.5136C10.9384 12.4445 10.9649 12.3675 11.0207 12.2267C11.0393 12.1789 11.0526 11.9372 11.0951 11.908C11.1668 11.8548 11.3315 11.9266 11.4245 11.8867C11.5174 11.8416 11.5653 11.7566 11.6715 11.645Z" fill="#A5AB3B"/>
<path d="M14.782 21.9513C14.3942 22.4373 13.6505 20.6683 13.2706 20.3044C12.4605 19.5314 11.6583 22.3098 11.0819 22.0761C10.8747 21.9247 11.4113 20.5222 11.2944 19.9697C11.1802 19.4172 9.61563 20.3469 9.51469 19.8873C9.39516 19.3588 10.8773 18.7903 10.9225 18.0652C10.965 17.4038 9.24375 16.6998 9.40047 16.2377C9.50672 15.8047 11.2227 16.6016 11.5042 16.1925C11.7114 15.8923 11.1191 14.7688 11.4272 14.4022C11.6503 14.2402 12.4605 15.2548 12.7606 15.1645C13.2441 15.0158 13.7488 12.7766 14.2561 12.6623C14.7502 12.5508 14.0038 15.3319 14.6731 15.8366C15.4248 16.4023 17.1939 14.4261 17.7942 14.8909C18.2219 15.1619 15.9136 17.0372 15.9561 17.7942C15.9933 18.4663 17.3347 19.5845 17.008 19.7864C16.8406 20.1503 14.9919 18.4663 14.6014 18.9284C14.272 19.3163 14.9839 21.6963 14.782 21.9513Z" fill="#F5EA96"/>
<path d="M15.725 11.8973C16.2536 11.8973 18.3201 8.01922 20.5965 6.21828C20.7479 6.09875 20.7612 6.15719 20.6523 6.32188C20.2592 6.91953 19.9325 7.27547 19.5128 7.87047C19.117 8.43094 16.6308 11.5866 16.83 11.9292L15.9853 12.1523L15.725 11.8973ZM13.9904 11.4245C13.6079 11.058 14.7528 6.44672 14.365 3.56734C14.3384 3.37609 14.2879 3.41063 14.2508 3.60188C14.1179 4.30578 14.0542 6.04563 13.9426 6.76813C13.839 7.44813 13.3529 11.5042 12.9704 11.6158L13.3104 12.155L13.9904 11.4245ZM16.0172 22.7534C16.405 22.6631 18.8939 26.1189 19.3162 26.6634C19.7625 27.2398 20.0069 27.6569 20.4637 28.2094C20.5886 28.3608 20.6497 28.3661 20.5806 28.1855C19.5234 25.4788 16.6308 22.7322 16.7875 22.2248L16.3147 22.3125L16.0172 22.7534ZM18.7664 14.357C18.7079 13.9188 22.7454 11.5547 23.3989 11.1536C24.0895 10.7286 24.3392 10.7127 25.0033 10.2744C25.1865 10.1548 25.1972 10.0858 24.99 10.1416C21.8556 10.9809 18.7026 13.7275 18.1554 13.4938L18.2484 14.0436L18.7664 14.357ZM13.4459 23.4866C13.0767 23.63 12.9572 27.9252 12.9147 28.6105C12.8695 29.3383 12.904 29.8217 12.835 30.5336C12.8164 30.7302 12.7686 30.7673 12.7261 30.5788C12.0779 27.7472 12.9253 23.8584 12.5109 23.5264L12.9519 23.3245L13.4459 23.4866ZM8.24763 20.493C8.25029 20.8888 4.85826 22.2886 4.2367 22.5808C3.57795 22.8889 3.11576 23.035 2.47826 23.3617C2.30295 23.452 2.28435 23.5105 2.4756 23.4813C5.34701 23.043 7.78014 21.0986 8.23967 21.3616L8.53717 20.8356L8.24763 20.493ZM18.7372 18.3813C18.9204 18.0837 23.6087 18.7053 24.2223 18.7372C24.8731 18.7717 25.2954 18.8461 25.9356 18.8594C26.1109 18.862 26.1534 18.8275 25.994 18.7717C23.5901 17.943 19.1436 17.8978 18.9151 17.5153L18.3122 17.6163L18.7372 18.3813ZM8.39107 14.9972C8.20513 15.1805 5.62592 14.5802 5.1106 14.4845C4.56342 14.3836 4.21545 14.2694 3.67623 14.187C3.52748 14.1631 3.49029 14.1897 3.62045 14.2561C5.57279 15.2416 8.22373 15.4222 8.38045 15.7781L8.56904 15.4434L8.39107 14.9972ZM9.3792 13.4778C9.08701 13.6717 5.99779 11.5573 5.45326 11.2705C4.87685 10.9677 4.52623 10.7233 3.94982 10.4417C3.79045 10.3647 3.73732 10.3806 3.85951 10.4975C5.69763 12.2559 9.21451 13.8178 9.26232 14.2614L9.5492 14.0356L9.3792 13.4778ZM7.71373 18.3627C7.60482 18.6947 6.69638 18.6894 6.08279 18.7638C5.43732 18.8408 4.08264 18.8992 3.45842 19.0347C3.28576 19.0719 3.25389 19.117 3.42388 19.133C5.95529 19.3827 7.54107 18.7531 7.85185 19.0719L8.08295 18.7266L7.71373 18.3627ZM18.4981 19.133C18.6123 19.6031 20.315 19.8342 22.5967 21.4678C22.7481 21.5767 22.6923 21.6006 22.5064 21.5395C21.829 21.3191 20.7426 20.5886 20.0626 20.3442C19.4198 20.1131 18.3069 19.6988 18.0094 19.9484M11.4989 23.2767C11.1589 23.4122 10.8773 24.4136 10.6569 25.0591C10.4204 25.7444 9.85998 27.4338 9.60763 28.1005C9.53857 28.2838 9.48279 28.313 9.49342 28.127C9.64482 25.3247 10.9889 23.4334 10.694 23.0509L10.9544 22.942L11.4989 23.2767ZM12.0275 11.5016C11.6397 11.483 10.8375 9.69797 10.524 9.08969C10.192 8.44688 10.0884 7.95016 9.7431 7.32594C9.64748 7.15328 9.58904 7.13469 9.62623 7.31797C10.184 10.0698 11.645 11.4644 11.4086 11.8867L11.7751 11.9106L12.0275 11.5016ZM18.8859 15.5922C18.8939 15.2442 21.5554 14.2402 22.1026 13.9772C22.6817 13.6983 23.0854 13.5628 23.6486 13.2706C23.8026 13.1909 23.8212 13.1378 23.6539 13.167C21.149 13.5867 18.947 15.1406 18.5539 14.9148L18.1873 15.3239L18.8859 15.5922Z" fill="#A5AB3B"/>
<path d="M18.9178 16.915C18.9417 17.077 19.2817 17.1992 19.5208 17.2337C19.7253 17.263 20.161 17.2497 20.1822 17.0372C20.2035 16.8167 19.7891 16.6998 19.5527 16.6892C19.3083 16.6786 18.9019 16.7556 18.9178 16.915ZM21.088 14.7927C21.1544 14.952 21.5369 14.9945 21.7919 14.9733C22.0097 14.9547 22.4586 14.8298 22.4267 14.6041C22.3922 14.3703 21.9327 14.3544 21.6883 14.3995C21.4333 14.4473 21.0322 14.6306 21.088 14.7927ZM17.1196 12.6703C17.2816 12.7128 17.5339 12.4445 17.6667 12.232C17.7783 12.0541 17.943 11.6344 17.7517 11.5281C17.5525 11.4192 17.2736 11.7619 17.1674 11.9797C17.0532 12.2055 16.9628 12.6198 17.1196 12.6703ZM19.0427 12.6384C19.1622 12.742 19.4889 12.6225 19.6882 12.5003C19.8582 12.3967 20.1742 12.1152 20.0574 11.9452C19.9352 11.7672 19.5553 11.9398 19.3747 12.078C19.1835 12.2187 18.9338 12.5295 19.0427 12.6384ZM14.8299 10.0991C15.0025 10.0911 15.1699 9.74844 15.2336 9.50141C15.2894 9.29156 15.3213 8.82937 15.1008 8.78422C14.8724 8.73641 14.7024 9.16141 14.6625 9.40578C14.62 9.66344 14.6599 10.0991 14.8299 10.0991ZM11.8336 10.2823C11.9957 10.2027 12.0142 9.80422 11.9717 9.54125C11.9372 9.31547 11.7778 8.85859 11.5467 8.90906C11.3077 8.95953 11.321 9.43766 11.3847 9.68734C11.4538 9.94766 11.6689 10.3514 11.8336 10.2823ZM11.0128 12.7978C11.1271 12.6969 11.0527 12.3728 10.9597 12.1683C10.88 11.9956 10.6516 11.6609 10.4736 11.7512C10.2903 11.8442 10.4099 12.2267 10.5161 12.418C10.6303 12.6119 10.8933 12.8908 11.0128 12.7978ZM6.52909 14.2667C6.51846 14.0834 6.1519 13.9108 5.88893 13.847C5.66581 13.7912 5.1744 13.762 5.12925 13.9984C5.08143 14.2428 5.533 14.4155 5.79596 14.4553C6.0669 14.4925 6.52909 14.4447 6.52909 14.2667ZM8.46018 11.6848C8.5319 11.5387 8.32471 11.2466 8.15206 11.0792C8.00331 10.9384 7.6394 10.6994 7.50128 10.8614C7.35784 11.0287 7.63143 11.3608 7.81471 11.5042C8.00596 11.6583 8.38315 11.8256 8.46018 11.6848ZM8.31675 16.2722C8.26628 16.0995 7.87581 16.0119 7.60753 16.0066C7.37909 16.0012 6.90096 16.0809 6.90893 16.3173C6.9169 16.5617 7.38971 16.6308 7.65003 16.6122C7.92362 16.5909 8.35659 16.4475 8.31675 16.2722ZM7.91831 19.8289C7.82534 19.6961 7.46675 19.7359 7.23565 19.8103C7.03909 19.8741 6.65393 20.0812 6.73096 20.2805C6.81065 20.4877 7.233 20.408 7.45081 20.3123C7.67393 20.2167 8.00065 19.9644 7.91831 19.8289ZM9.03659 21.845C8.90643 21.7441 8.5744 21.8875 8.37253 22.0283C8.20253 22.1478 7.89175 22.4586 8.0219 22.6286C8.15737 22.8066 8.54253 22.6047 8.72581 22.4506C8.9144 22.2886 9.15878 21.9512 9.03659 21.845ZM9.44565 23.6645C9.27831 23.6114 8.99675 23.8797 8.84534 24.0922C8.71784 24.2755 8.51862 24.7031 8.71518 24.8253C8.91706 24.9528 9.2305 24.6075 9.35534 24.387C9.4855 24.1586 9.60768 23.7283 9.44565 23.6645ZM12.3888 23.0297C12.1975 23.0483 12.0275 23.4387 11.9691 23.7177C11.9186 23.9567 11.9027 24.472 12.1524 24.5119C12.41 24.5517 12.5774 24.0709 12.6092 23.7947C12.6411 23.5052 12.5774 23.0217 12.3888 23.0297ZM13.3742 24.6792C13.1936 24.735 13.106 25.1414 13.1033 25.423C13.1007 25.662 13.1857 26.1614 13.4353 26.1508C13.693 26.1402 13.7594 25.6461 13.7355 25.3725C13.7116 25.0883 13.5549 24.6367 13.3742 24.6792ZM16.2058 23.5875C16.0836 23.723 16.2138 24.1055 16.3492 24.3419C16.4661 24.5411 16.7849 24.9156 16.9867 24.7828C17.1939 24.6473 17.0053 24.2011 16.8513 23.9859C16.6892 23.7628 16.3333 23.4627 16.2058 23.5875ZM19.2366 21.4253C19.1649 21.59 19.4119 21.9034 19.6164 22.0761C19.7891 22.2222 20.2088 22.4666 20.3522 22.278C20.501 22.0841 20.1796 21.7308 19.9671 21.5847C19.7439 21.428 19.3163 21.2659 19.2366 21.4253ZM18.5486 19.6244C18.5167 19.7652 18.7585 19.9777 18.9444 20.0839C19.1038 20.1742 19.4703 20.3044 19.5553 20.1344C19.6457 19.9591 19.3375 19.728 19.1463 19.6403C18.9497 19.5527 18.5885 19.4862 18.5486 19.6244Z" fill="black"/>
</svg>
