<svg width="34" height="34" viewBox="0 0 34 34" fill="none" xmlns="http://www.w3.org/2000/svg">
<path d="M6.37499 7.83062L3.47437 14.3836L3.71608 22.3072C3.71608 22.3072 5.32843 27.5028 5.40812 27.5586C5.4878 27.6117 5.75608 27.4922 6.40155 26.3367C7.04702 25.1812 8.68593 22.8703 8.81874 22.3072C8.95421 21.7441 9.00733 17.688 9.00733 17.688L9.38452 8.95687L6.37499 7.83062Z" fill="#757F3E"/>
<path d="M6.38296 8.09625C6.38296 8.09625 1.0864 13.1883 1.08374 18.0917C1.08374 21.505 2.74921 23.383 3.15296 24.055C3.55671 24.727 4.49702 26.1773 4.71218 26.4722C4.92733 26.767 5.18765 27.3248 5.37358 27.54C5.56218 27.7552 5.35499 26.1216 5.13983 25.4522C4.92468 24.7802 4.33765 21.1331 4.33499 18.7372C4.33233 16.1128 4.55546 12.9333 5.47187 11.0075C6.4839 8.8825 7.43483 7.87844 7.43483 7.87844L6.38296 8.09625Z" fill="#94A61D"/>
<path d="M8.14935 8.77094C8.14935 8.77094 6.59014 9.54922 6.53701 10.4895C6.48389 11.4298 6.96732 12.3967 7.15592 13.685C7.34451 14.9733 7.34451 16.6122 7.37107 17.0956C7.39498 17.5817 8.7656 20.8595 8.7656 20.8595L17.2815 28.4883L27.9464 28.8097C27.9464 28.8097 31.3039 28.9983 31.7342 28.4883C32.1645 27.9783 32.9773 26.8334 33.0783 26.0711C33.2669 24.6473 32.7569 23.8956 32.3797 21.6112C32.2203 20.6391 32.1645 16.8353 30.7142 13.7939C29.0753 10.3567 25.824 7.34719 19.2445 6.48656C14.4606 5.86234 12.0461 6.86375 11.3475 6.75484C10.6489 6.64859 10.0858 6.32453 9.27826 6.70172C8.24498 7.1825 8.14935 8.77094 8.14935 8.77094Z" fill="#FCC219"/>
<path d="M29.4232 29.8031C30.6903 29.8456 31.357 29.1311 31.6253 28.8362C31.8935 28.5414 32.4328 27.5267 32.4328 27.5267C32.4328 27.5267 31.5163 28.2997 30.4698 28.2439C29.4232 28.1908 28.026 27.9225 27.192 27.8402C26.3579 27.7578 23.7256 28.3502 20.5301 27.6516C17.3346 26.953 13.8071 25.1866 11.4776 22.8969C8.33525 19.8077 7.33385 16.3519 7.33385 16.3519C7.33385 16.3519 7.17979 20.6391 10.1893 24.5623C13.1988 28.4856 16.2615 29.8802 20.0201 30.2839C24.2701 30.7381 26.6554 29.7739 27.2717 29.7473C27.8932 29.7234 28.6449 29.7766 29.4232 29.8031Z" fill="#F7932A"/>
<path d="M14.0861 9.38719C14.0064 10.2212 14.5164 10.8375 15.1327 10.9464C15.7967 11.0606 16.7981 10.8933 18.275 11.7247C19.7519 12.5587 21.8264 14.6359 23.0563 13.5256C24.1852 12.5056 22.3577 10.625 21.7122 10.0592C21.0667 9.49609 19.4571 8.04578 16.421 7.99C14.6758 7.96078 14.1392 8.82406 14.0861 9.38719Z" fill="#FFEBC9"/>
<path d="M5.40807 4.60594C5.40276 4.40672 5.21947 3.29109 4.68557 3.54875C3.76385 3.98969 3.41588 4.63781 3.71604 5.38687C4.09322 6.32719 4.72541 6.93812 5.40807 7.64203C5.93135 8.18391 6.96729 9.28094 7.34182 9.60234C7.71901 9.92375 8.27416 10.362 8.9276 9.52266C9.62354 8.6275 9.15338 8.46547 8.56104 7.89969C7.96869 7.33391 7.70307 7.14531 6.56354 5.97656C5.99244 5.38953 5.41338 4.80516 5.40807 4.60594Z" fill="#757F3E"/>
</svg>
