<svg width="34" height="34" viewBox="0 0 34 34" fill="none" xmlns="http://www.w3.org/2000/svg">
<path d="M32.1486 5.77734L1.18738 16.7184C1.18738 16.7184 1.07316 19.1702 1.33879 21.2048C1.60441 23.2395 1.97894 24.3339 1.97894 24.3339C1.97894 24.3339 2.99629 28.9717 8.91707 31.272C14.8379 33.5723 20.8968 30.9613 22.7189 29.9519C24.9077 28.7406 27.7658 25.9463 28.8974 24.5517C30.0289 23.1572 32.223 19.9989 32.486 17.9616C32.7489 15.9242 33.0252 12.7048 33.0146 10.6675C32.996 7.65 32.1486 5.77734 32.1486 5.77734Z" fill="#FEA8A6"/>
<path d="M17.0238 7.89437C15.2521 8.30875 9.59432 8.94891 8.23697 9.32609C6.87963 9.70328 5.00963 10.4364 4.42525 10.8986C3.469 11.6556 1.17135 15.5098 1.18463 16.7184C1.20588 18.8195 1.98682 21.4147 2.66682 22.0416C3.16088 22.4984 6.99385 28.0288 12.1974 28.0659C17.401 28.1031 28.8654 20.2592 29.3542 19.5819C29.8456 18.9019 31.5456 15.6506 32.0184 13.5973C32.4354 11.7831 32.964 7.88375 32.0688 5.51703C31.3809 3.69484 29.7553 2.01344 28.6476 1.79297C26.4562 1.36 25.2078 1.785 24.8678 1.89922C24.5278 2.01344 23.946 5.54891 22.4931 6.08547C20.3442 6.87703 17.0238 7.89437 17.0238 7.89437Z" fill="#FED5B6"/>
<path d="M23.6911 6.00314C25.2371 5.08939 25.3991 1.76111 25.3991 1.76111C25.3991 1.76111 24.2144 1.83814 22.8943 2.90861C21.5741 3.97908 20.0494 5.88892 19.2977 6.43611C18.546 6.9833 17.0239 7.89439 17.0239 7.89439C17.0239 7.89439 21.3085 7.4083 23.6911 6.00314ZM25.4894 9.89455C26.3049 12.402 29.2666 13.1936 30.1086 12.9678C30.9507 12.7394 31.474 10.896 31.4049 8.21048C31.3358 5.52501 29.9705 4.02158 28.6955 4.11455C27.6038 4.19158 26.0765 5.25939 25.508 6.89033C25.1773 7.86341 25.1708 8.91745 25.4894 9.89455ZM20.5036 9.28095C20.8569 9.63423 19.89 10.6702 20.4346 12.2852C20.9818 13.9002 21.8902 14.357 21.8238 14.8352C21.7574 15.3133 17.9775 20.0919 15.316 21.0933C12.6544 22.0947 5.26739 21.76 3.9127 17.9988C2.88739 15.1539 5.05223 12.6995 5.62067 12.24C6.48395 11.5414 7.33926 11.0075 8.64879 10.7605C9.14817 10.6675 12.8829 10.1017 15.0902 9.87329C17.2949 9.64486 20.0946 8.87189 20.5036 9.28095Z" fill="#DC0D28"/>
<path d="M14.2215 11.2147C14.4074 12.078 11.876 12.9227 9.92103 14.3544C8.47338 15.4142 7.37104 17.3586 6.11994 16.5856C4.86885 15.8127 6.6326 12.8244 7.30463 12.3064C8.09885 11.6928 14.017 10.2585 14.2215 11.2147ZM21.1118 6.05095C21.3031 6.47595 22.7056 5.43736 23.3882 4.86626C23.9407 4.40673 24.6101 3.9897 24.2542 3.43189C23.8451 2.79439 23.1173 3.34158 22.4107 4.09064C21.9485 4.58205 20.9046 5.59673 21.1118 6.05095Z" fill="#FF5F5D"/>
<path d="M10.6489 23.8239C11.7061 24.1586 11.3369 27.8641 12.1284 27.8295C13.0448 27.7924 12.3754 24.6845 13.2175 23.9355C14.0595 23.1838 15.1194 23.306 16.644 22.5542C18.1687 21.8025 19.8448 20.3894 21.0269 19.0002C22.2115 17.611 23.5317 16.0411 24.1453 15.563C24.7589 15.0849 27.9703 14.1286 29.0833 14.9042C30.1989 15.6772 29.7898 18.955 29.7898 18.955C29.7898 18.955 27.617 22.8491 23.2475 25.4336C18.8779 28.0181 16.3917 29.0435 11.0739 28.4352C5.75607 27.8269 2.56592 21.9353 2.56592 21.9353C2.56592 21.9353 4.61654 22.8092 6.93545 23.1891C9.25436 23.5689 9.59701 23.4919 10.6489 23.8239Z" fill="#DC0D28"/>
<path d="M23.2635 7.82797C21.9513 8.62484 20.7825 10.1123 21.3775 12.1072C21.9725 14.102 25.0591 15.3133 27.0911 13.3689C28.8921 11.6477 28.4671 9.63953 27.641 8.66469C26.8202 7.6925 24.9741 6.78938 23.2635 7.82797Z" fill="white"/>
<path d="M26.0153 8.72048C24.6235 8.01392 23.1971 8.82142 22.7535 9.7272C22.3125 10.633 22.3683 11.9053 23.4202 12.6597C24.5464 13.4699 26.2756 13.0635 26.8786 11.823C27.4816 10.5825 27.1203 9.28095 26.0153 8.72048Z" fill="#FFA8A7"/>
</svg>
