<svg width="34" height="34" viewBox="0 0 34 34" fill="none" xmlns="http://www.w3.org/2000/svg">
<path d="M24.7105 3.10888C20.248 1.00513 14.9143 2.36513 12.003 6.33888L6.43555 13.9251C2.23867 19.6414 4.31055 27.7695 10.728 30.787C16.3912 33.4539 23.1274 30.9889 25.7518 25.3151L29.6937 16.7726C32.063 11.6301 29.8424 5.53138 24.7105 3.10888Z" fill="#F3AD61"/>
<path d="M22.7024 6.95514C22.7024 7.34965 22.5457 7.728 22.2667 8.00696C21.9878 8.28592 21.6094 8.44264 21.2149 8.44264C20.8204 8.44264 20.4421 8.28592 20.1631 8.00696C19.8841 7.728 19.7274 7.34965 19.7274 6.95514C19.7274 6.56063 19.8841 6.18228 20.1631 5.90331C20.4421 5.62435 20.8204 5.46764 21.2149 5.46764C21.6094 5.46764 21.9878 5.62435 22.2667 5.90331C22.5457 6.18228 22.7024 6.56063 22.7024 6.95514ZM19.653 16.2839C20.1687 16.2839 20.6633 16.079 21.0279 15.7144C21.3926 15.3498 21.5974 14.8552 21.5974 14.3395C21.5974 13.8238 21.3926 13.3293 21.0279 12.9646C20.6633 12.6 20.1687 12.3951 19.653 12.3951C19.1374 12.3951 18.6428 12.6 18.2782 12.9646C17.9135 13.3293 17.7087 13.8238 17.7087 14.3395C17.7087 14.8552 17.9135 15.3498 18.2782 15.7144C18.6428 16.079 19.1374 16.2839 19.653 16.2839ZM10.6218 21.9789C11.0952 21.9789 11.5492 21.7908 11.884 21.4561C12.2187 21.1213 12.4068 20.6673 12.4068 20.1939C12.4068 19.7205 12.2187 19.2665 11.884 18.9317C11.5492 18.5969 11.0952 18.4089 10.6218 18.4089C10.1484 18.4089 9.69436 18.5969 9.35961 18.9317C9.02485 19.2665 8.83679 19.7205 8.83679 20.1939C8.83679 20.6673 9.02485 21.1213 9.35961 21.4561C9.69436 21.7908 10.1484 21.9789 10.6218 21.9789ZM13.2462 25.3683C13.2462 25.6951 13.1163 26.0086 12.8852 26.2398C12.654 26.4709 12.3405 26.6008 12.0137 26.6008C11.6868 26.6008 11.3733 26.4709 11.1422 26.2398C10.911 26.0086 10.7812 25.6951 10.7812 25.3683C10.7812 25.0414 10.911 24.7279 11.1422 24.4968C11.3733 24.2656 11.6868 24.1358 12.0137 24.1358C12.3405 24.1358 12.654 24.2656 12.8852 24.4968C13.1163 24.7279 13.2462 25.0414 13.2462 25.3683ZM26.028 16.8045C26.3549 16.8045 26.6684 16.6747 26.8996 16.4435C27.1307 16.2124 27.2605 15.8989 27.2605 15.572C27.2605 15.2451 27.1307 14.9316 26.8996 14.7005C26.6684 14.4694 26.3549 14.3395 26.028 14.3395C25.7012 14.3395 25.3877 14.4694 25.1565 14.7005C24.9254 14.9316 24.7955 15.2451 24.7955 15.572C24.7955 15.8989 24.9254 16.2124 25.1565 16.4435C25.3877 16.6747 25.7012 16.8045 26.028 16.8045Z" fill="#D3883E"/>
</svg>
