<svg width="34" height="34" viewBox="0 0 34 34" fill="none" xmlns="http://www.w3.org/2000/svg">
<g clip-path="url(#clip0_268_794)">
<path d="M33.2721 22.8214C31.3728 30.6957 22.5653 35.3261 13.5999 33.1636C4.63454 31.0012 -1.09373 22.8647 0.805554 14.9905C2.70484 7.11623 11.5124 2.48585 20.4777 4.6483C29.4431 6.81076 35.1714 14.9471 33.2721 22.8214Z" fill="#FF473E"/>
<path d="M23.9853 8.04558C23.9054 8.06312 23.8219 8.05283 23.7487 8.01643L23.699 7.99166C23.699 7.99166 23.6636 7.97407 23.6013 7.93827C23.5405 7.90155 23.4463 7.85095 23.3362 7.78003C23.3084 7.76243 23.2784 7.74443 23.2487 7.72438L23.2027 7.69436L23.1553 7.67012C23.0902 7.63798 23.025 7.60126 22.9546 7.56474C22.882 7.52894 22.8191 7.48598 22.7358 7.44879C22.6549 7.41061 22.5747 7.36831 22.4906 7.327C22.4476 7.30768 22.4093 7.28145 22.3644 7.26412L22.2309 7.20853C22.1857 7.19047 22.1424 7.16995 22.0982 7.15016L22.0319 7.12015C22.0097 7.11025 21.9852 7.10394 21.962 7.09571C21.8674 7.0651 21.7771 7.02877 21.6847 6.99524C21.5891 6.96859 21.4937 6.94094 21.3986 6.9123L21.328 6.89105C21.3033 6.88573 21.2779 6.88142 21.2536 6.87544L21.107 6.84191C21.0578 6.83135 21.0115 6.8174 20.9609 6.80917L20.809 6.78327L20.6592 6.75598L20.6219 6.74907L20.5821 6.74535L20.5036 6.73512L20.3479 6.71394C20.2959 6.70717 20.2467 6.69727 20.1903 6.69608C20.1362 6.69057 20.0822 6.68585 20.0288 6.67928C19.9759 6.67064 19.9227 6.66453 19.8707 6.65331C19.7639 6.63538 19.6517 6.62164 19.5455 6.59288C19.4913 6.58173 19.4394 6.562 19.385 6.54872C19.3297 6.53338 19.274 6.52116 19.2192 6.5029C19.1089 6.47103 19.0012 6.4278 18.8922 6.38735C18.7806 6.34784 18.6698 6.31006 18.5606 6.26935C18.4514 6.22851 18.3444 6.18634 18.235 6.1544C18.0886 6.10884 17.9426 6.06208 17.797 6.01415C17.7612 6.05636 17.7246 6.09789 17.6873 6.13873C17.623 6.20387 17.5792 6.27314 17.5241 6.33463C17.472 6.39698 17.4249 6.45595 17.3768 6.50961C17.3387 6.56025 17.2995 6.61004 17.2592 6.65896C17.2299 6.69565 17.2 6.73176 17.1693 6.76726C17.1375 6.84806 17.1044 6.92832 17.0698 7.00799C17.0097 7.14571 16.9464 7.28208 16.8802 7.41698C16.8631 7.45337 16.8439 7.48917 16.8255 7.52562C16.8071 7.5633 16.7882 7.60067 16.7686 7.63772C16.6454 7.87457 16.5144 8.10723 16.3757 8.33531C16.1842 8.65371 15.9797 8.96413 15.7627 9.2658C15.6553 9.41382 15.5476 9.55686 15.4385 9.69113C15.3363 9.8198 15.2308 9.94579 15.122 10.069C14.9171 10.3016 14.7274 10.4921 14.5857 10.6232C14.5164 10.6893 14.454 10.7388 14.4155 10.7735C14.3961 10.791 14.3789 10.803 14.3682 10.8119L14.352 10.824L14.2998 10.8629C13.9926 11.0917 13.5582 11.0282 13.3294 10.7211C13.2806 10.6553 13.2437 10.5815 13.2203 10.5029L13.1956 10.4192C13.1826 10.3665 13.1576 10.2878 13.1371 10.1909C13.1109 10.0757 13.0886 9.9597 13.0705 9.843C13.0471 9.6957 13.029 9.54761 13.0162 9.39901C13.0023 9.23764 12.9922 9.06366 12.9903 8.88157C12.9859 8.69869 12.9908 8.50804 13.0025 8.31174C13.0144 8.11558 13.0347 7.91423 13.0624 7.71076C13.0901 7.50716 13.1268 7.3017 13.1717 7.0973C13.2166 6.89264 13.2686 6.68904 13.3316 6.48995C13.3552 6.41487 13.3801 6.3404 13.4061 6.26656C13.3322 6.27931 13.258 6.29202 13.1834 6.30468C12.9413 6.35063 12.6959 6.40316 12.4484 6.45874C12.2005 6.51572 11.9517 6.58026 11.7022 6.64468C11.4543 6.71467 11.2053 6.78274 10.9601 6.85459C10.717 6.92983 10.4728 6.99922 10.2404 7.07632C10.0049 7.1487 9.78057 7.2262 9.56309 7.29566L8.95826 7.50185C8.87081 7.53459 8.78263 7.5653 8.69376 7.59396C8.60936 7.62138 8.54069 7.64755 8.46818 7.66919C8.39852 7.69204 8.3345 7.7107 8.27314 7.737C8.21411 7.76123 8.16185 7.78009 8.11921 7.7953C8.03435 7.82591 7.98594 7.83966 7.98594 7.83966C7.91791 7.85902 7.84622 7.8617 7.77693 7.84748C7.70765 7.83326 7.64281 7.80256 7.5879 7.75797C7.533 7.71339 7.48964 7.65623 7.46151 7.59133C7.43337 7.52644 7.42128 7.45573 7.42627 7.38517C7.42627 7.38517 7.42985 7.33497 7.44234 7.24566C7.44844 7.2009 7.45628 7.14585 7.46784 7.08309C7.47441 7.05108 7.47667 7.01855 7.48875 6.97983L7.52455 6.8597C7.54918 6.77477 7.58285 6.67815 7.61951 6.5808C7.65901 6.4759 7.70182 6.37227 7.74787 6.27008C7.80291 6.15571 7.86114 6.04291 7.92252 5.93181C7.99345 5.8104 8.0681 5.69121 8.14637 5.57441C8.31471 5.33488 8.51407 5.08353 8.75266 4.84547C8.98807 4.60255 9.26366 4.37538 9.56607 4.16075C9.88108 3.94297 10.2153 3.75433 10.5645 3.59716C10.9249 3.43978 11.3066 3.30929 11.701 3.21626C12.0969 3.12873 12.5032 3.07468 12.9078 3.06339C13.1911 3.05808 13.4723 3.07229 13.7467 3.10629C13.6976 3.01502 13.6425 2.92704 13.5819 2.84292C13.5456 2.78973 13.5006 2.73468 13.458 2.67584C13.4085 2.62019 13.362 2.56282 13.3081 2.50232C13.2045 2.38399 13.0857 2.2628 12.9693 2.14167L12.6152 1.78547C12.5063 1.67602 12.3984 1.56568 12.2914 1.45443C12.1935 1.35037 12.1084 1.2584 12.0373 1.1748C11.9598 1.09471 11.9017 1.02047 11.8609 0.97478C11.8406 0.951936 11.8257 0.931018 11.8155 0.918202L11.8 0.89828L11.767 0.855714C11.7273 0.804528 11.7008 0.744356 11.6899 0.680513C11.679 0.616669 11.6839 0.551119 11.7044 0.489651C11.7248 0.428183 11.76 0.372689 11.807 0.328071C11.8539 0.283452 11.9111 0.251082 11.9736 0.233819C11.9736 0.233819 12.0039 0.225452 12.06 0.212569C12.1158 0.200948 12.1989 0.179233 12.3021 0.160971C12.4097 0.145034 12.5447 0.121858 12.6952 0.109639L12.9368 0.0879909C13.0226 0.0820807 13.1116 0.0824128 13.2063 0.0796901C13.3008 0.0778307 13.4004 0.0805534 13.5042 0.0815495C13.6082 0.0835417 13.7154 0.095362 13.8274 0.103198C14.0513 0.128831 14.2913 0.16303 14.5456 0.231495C14.7993 0.296507 15.0689 0.387749 15.3426 0.525077C15.6175 0.658487 15.8954 0.837452 16.1598 1.06018C16.2254 1.11685 16.2907 1.17475 16.3557 1.2339C16.4184 1.29574 16.4807 1.35879 16.5425 1.42302C16.6025 1.48859 16.6619 1.55535 16.7207 1.6233C16.7799 1.6911 16.8321 1.76242 16.8872 1.83341C17.0141 2.00594 17.1282 2.1849 17.2244 2.36559C17.3113 2.2794 17.4012 2.19539 17.4974 2.11883C17.6563 1.9807 17.8301 1.86496 18.0058 1.74941C18.0956 1.69625 18.1861 1.64441 18.2774 1.59389C18.3682 1.54116 18.4629 1.50224 18.5564 1.45709C18.9325 1.28775 19.322 1.1641 19.7058 1.09743C20.0893 1.02817 20.4676 1.00094 20.826 1.01947C21.1847 1.03521 21.5248 1.08555 21.8372 1.16729C22.1501 1.24459 22.4352 1.35396 22.6881 1.47223C22.9408 1.59468 23.1614 1.72477 23.346 1.86237C23.4379 1.93116 23.5233 1.99232 23.5975 2.06185C23.6725 2.12846 23.7386 2.1857 23.8017 2.25124C23.8565 2.30497 23.9092 2.3608 23.9597 2.41858C23.9954 2.46666 24.0248 2.51003 24.0485 2.54542C24.0726 2.57989 24.0897 2.60944 24.1017 2.62816L24.1198 2.65705C24.1568 2.71633 24.179 2.7837 24.1843 2.85339C24.1896 2.92309 24.178 2.99304 24.1505 3.05727C24.1229 3.1215 24.0802 3.1781 24.026 3.22223C23.9717 3.26636 23.9077 3.29671 23.8392 3.31069L23.8058 3.31753C23.7839 3.32171 23.7506 3.32968 23.7091 3.33599C23.6671 3.34323 23.6154 3.35179 23.5559 3.3591C23.502 3.37351 23.443 3.38792 23.3797 3.40306C23.3186 3.41953 23.2429 3.43507 23.1646 3.45306C23.1251 3.46269 23.0853 3.47073 23.044 3.47929L22.9157 3.50964C22.7417 3.54948 22.5506 3.5973 22.3519 3.64597C22.1523 3.69817 21.9445 3.74976 21.7332 3.81092C21.6278 3.83928 21.5217 3.86983 21.4157 3.90157L21.4568 3.92295C21.6091 3.99673 21.7565 4.09534 21.901 4.18824L22.1144 4.32796C22.1836 4.3773 22.2501 4.43362 22.3163 4.48568L22.5111 4.64353C22.5429 4.66989 22.5749 4.69519 22.6057 4.72202L22.6947 4.80742C22.8111 4.9223 22.9278 5.02862 23.0303 5.14423C23.1255 5.25982 23.2197 5.3763 23.3128 5.49366C23.3347 5.52221 23.3581 5.54898 23.378 5.57826L23.4367 5.66565C23.4751 5.72356 23.5132 5.77954 23.5482 5.83658L23.6512 6.00253C23.6854 6.05599 23.7106 6.11343 23.7393 6.16655C23.7941 6.27466 23.8472 6.3758 23.8935 6.47395C23.9173 6.52176 23.9378 6.57236 23.9571 6.62184L24.0132 6.76388C24.0483 6.85545 24.0821 6.93899 24.109 7.01801L24.1292 7.07546L24.143 7.12785L24.1679 7.2252C24.2004 7.34785 24.2211 7.44746 24.2374 7.51394L24.26 7.6174C24.2803 7.71061 24.2627 7.80804 24.2112 7.88832C24.1597 7.9686 24.0784 8.02516 23.9853 8.04558Z" fill="#2BA52E"/>
<path d="M28.9673 18.4517C28.1424 18.4517 27.3816 17.913 27.1366 17.0816C26.5114 14.9603 25.3925 13.2185 23.986 12.177C23.1385 11.5494 22.9602 10.3537 23.5878 9.50619C24.2154 8.65871 25.4112 8.48041 26.2586 9.10795C28.3284 10.6407 29.9412 13.089 30.7998 16.002C31.0979 17.0135 30.5195 18.0752 29.508 18.3733C29.3325 18.4252 29.1503 18.4516 28.9673 18.4517Z" fill="#FF8888"/>
</g>
<defs>
<clipPath id="clip0_268_794">
<rect width="34" height="34" fill="white"/>
</clipPath>
</defs>
</svg>
